<svg width="126" height="91" viewBox="0 0 126 91" fill="none" xmlns="http://www.w3.org/2000/svg">
<path d="M32.3163 82C20.983 76.1667 -0.883666 62.9 2.31633 56.5C5.51633 50.1 27.1667 62.6667 37 70C21.6837 53.5 15 10 62.8163 3.00002C109 5.50001 108 51 88.5 71.5C97.6667 63.1667 118.016 49.6 122.816 54C127.616 58.4 109.816 73.1667 100.316 80" stroke="black" stroke-width="4"/>
<circle cx="45" cy="30" r="3" fill="black"/>
<circle cx="74" cy="30" r="3" fill="black"/>
<path d="M56.2344 40C54.2343 45.5 65.7343 46.5 64.2343 40" stroke="black" stroke-width="3" stroke-linecap="round"/>
<path d="M78.3209 73.2962L64.821 87.7961L57 81.5L50.5738 75.4837C45.5 69.4838 50.4135 64.5761 53.5 64.5C55.9805 64.4389 61.0739 67.4838 63.5738 69.4838C66.0739 66.9838 68.721 61.6961 74.321 63.2961C79.921 64.8961 80.5 69.4838 78.3209 73.2962Z" stroke="black" stroke-width="4" stroke-linecap="round"/>
</svg>
